# xmcd
#
# Track frame offsets: 
#        150
#        13415
#        31273
#        50403
#        72793
#        87269
#        101912
#        121262
#        137617
#        155940
#        170728
#        188160
#        200535
#
# Disc length: 2855 seconds
#
# Revision: 0
# Processed by: cddbd v1.5.2PL0 Copyright (c) Steve Scherf et al.
# Submitted via: ExactAudioCopyFreeDBPlugin 1.0
#
DISCID=ba0b250d
DTITLE=Jamestown Story - Jamestown Story
DYEAR=2008
DGENRE=Rock
TTITLE0=Dreaming Of This
TTITLE1=Distant And Faded
TTITLE2=In Loving Memory
TTITLE3=It's Like A Knife In A Gunfight
TTITLE4=Head Spin
TTITLE5=I Miss You
TTITLE6=Don't Say No
TTITLE7=Hold On
TTITLE8=If You Live By The Sword, You Die By The Sword
TTITLE9=Here's Lookin At You Kid
TTITLE10=Breakdown
TTITLE11=Change
TTITLE12=I Hope You're Proud
EXTD=
EXTT0=
EXTT1=
EXTT2=
EXTT3=
EXTT4=
EXTT5=
EXTT6=
EXTT7=
EXTT8=
EXTT9=
EXTT10=
EXTT11=
EXTT12=
PLAYORDER=
